<svg xmlns="http://www.w3.org/2000/svg" version="1.1" xmlns:xlink="http://www.w3.org/1999/xlink" width="512" height="512" x="0" y="0" viewBox="0 0 512 512" style="enable-background:new 0 0 512 512" xml:space="preserve" class=""><g><path fill="#c68d7a" d="M50.378 157.629H460.86v332.729H50.378z" opacity="1" data-original="#c68d7a" class=""></path><path fill="#bc7c63" d="M50.378 157.629h20.679v332.729H50.378z" opacity="1" data-original="#bc7c63" class=""></path><path fill="#ebebeb" d="M490.109 150.922v21.016c0 .958-.041 1.916-.134 2.854-.67 7.335-3.935 13.928-8.86 18.852-5.563 5.553-13.238 8.993-21.716 8.993-10.6 0-19.954-5.378-25.466-13.547a30.86 30.86 0 0 1-10.838 9.838 30.49 30.49 0 0 1-14.639 3.709c-10.611 0-19.955-5.378-25.476-13.547a30.835 30.835 0 0 1-10.827 9.838 30.522 30.522 0 0 1-14.639 3.709c-10.611 0-19.965-5.378-25.476-13.547a30.92 30.92 0 0 1-10.827 9.838 30.564 30.564 0 0 1-14.649 3.709c-10.601 0-19.955-5.378-25.466-13.547a30.92 30.92 0 0 1-10.827 9.838 30.564 30.564 0 0 1-14.649 3.709c-10.6 0-19.955-5.378-25.476-13.547a30.835 30.835 0 0 1-10.827 9.838 30.522 30.522 0 0 1-14.639 3.709c-10.611 0-19.954-5.378-25.476-13.547-5.511 8.169-14.865 13.547-25.466 13.547h-.01c-10.601 0-19.955-5.378-25.466-13.547a30.92 30.92 0 0 1-10.827 9.838 30.564 30.564 0 0 1-14.649 3.709c-10.601 0-19.955-5.378-25.466-13.547a30.86 30.86 0 0 1-10.838 9.838 30.522 30.522 0 0 1-14.639 3.709c-15.999 0-29.134-12.228-30.576-27.846a28.987 28.987 0 0 1-.134-2.854v-21.016h468.978z" opacity="1" data-original="#ebebeb" class=""></path><path fill="#e2e2e2" d="M490.109 150.922v21.016c0 .958-.041 1.916-.134 2.854H21.263a28.987 28.987 0 0 1-.134-2.854v-21.016z" opacity="1" data-original="#e2e2e2" class=""></path><path fill="#fd8087" d="M512 94.464v45.49c0 9.762-7.914 17.676-17.676 17.676H18.437c-9.762 0-17.676-7.914-17.676-17.676v-45.49c0-9.762 7.914-17.676 17.676-17.676h25.342C72.304 32.494 156.705.38 256.381.38s184.077 32.114 212.601 76.408h25.342c9.762 0 17.676 7.914 17.676 17.676z" opacity="1" data-original="#fd8087" class=""></path><path fill="#fe646f" d="M281.02 1.048c-88.762 4.783-161.837 35.149-187.975 75.74H67.699c-9.762 0-17.672 7.91-17.672 17.672v45.497c0 9.762 7.91 17.672 17.672 17.672H18.437c-9.762 0-17.672-7.91-17.672-17.672V94.46c0-9.762 7.91-17.672 17.672-17.672h25.346C72.307 32.494 156.708.379 256.384.379c8.332 0 16.551.227 24.636.669z" opacity="1" data-original="#fe646f"></path><g fill="#f9f7f8"><path d="m333.7 93.344 22.396-20.587a7.727 7.727 0 0 0-10.457-11.378l-17.283 15.886V66.359a7.726 7.726 0 1 0-15.452 0v56.21a7.726 7.726 0 1 0 15.452 0V109.66l19.143 18.468a7.698 7.698 0 0 0 5.363 2.166 7.726 7.726 0 0 0 5.365-13.287zM133.825 89.974a20.5 20.5 0 0 0 3.009-10.682c0-11.392-9.268-20.66-20.66-20.66H99.847a7.726 7.726 0 0 0-7.726 7.726v56.21a7.725 7.725 0 0 0 7.726 7.726h.034s15.008-.067 19.145-.067c12.603 0 22.856-10.253 22.856-22.856 0-6.961-3.132-13.201-8.057-17.397zm-17.651-15.889a5.213 5.213 0 0 1 5.208 5.207 5.214 5.214 0 0 1-5.208 5.208c-1.191 0-3.429.007-5.872.015h-2.729v-10.43zm2.852 40.69c-2.123 0-7.097.018-11.453.035V99.978l2.744-.01h8.709c4.082 0 7.403 3.321 7.403 7.404 0 4.082-3.321 7.403-7.403 7.403zM403.555 87.657c-6.783-2.502-13.107-5.224-15.174-6.128-1.182-1.007-1.139-2.379-1.055-2.958.123-.859.758-2.962 3.979-3.933 7.554-2.274 14.62 3.285 14.826 3.45a7.727 7.727 0 0 0 9.898-11.867c-.543-.456-13.462-11.115-29.181-6.379-8.023 2.417-13.701 8.752-14.819 16.533-1.05 7.317 2.123 14.357 8.281 18.372.341.222.699.418 1.071.584.326.145 8.088 3.6 16.826 6.823 1.794.661 7.595 3.113 6.924 6.873-.51 2.858-4.064 5.814-9.13 5.814-5.392 0-10.575-2.166-13.863-5.794a7.726 7.726 0 0 0-11.45 10.377c6.262 6.908 15.488 10.87 25.314 10.87 12.185 0 22.423-7.802 24.342-18.55 1.448-8.116-2.201-18.706-16.789-24.087zM185.226 58.632c-19.758 0-35.831 16.074-35.831 35.831 0 19.758 16.074 35.831 35.831 35.831s35.831-16.074 35.831-35.831-16.074-35.831-35.831-35.831zm0 56.21c-11.237 0-20.379-9.142-20.379-20.379 0-11.236 9.142-20.378 20.379-20.378s20.379 9.142 20.379 20.378c0 11.237-9.142 20.379-20.379 20.379zM266.215 58.632c-19.757 0-35.831 16.074-35.831 35.831 0 19.758 16.074 35.831 35.831 35.831 19.758 0 35.832-16.074 35.832-35.831s-16.074-35.831-35.832-35.831zm0 56.21c-11.236 0-20.378-9.142-20.378-20.379 0-11.236 9.142-20.378 20.378-20.378 11.237 0 20.379 9.142 20.379 20.378.001 11.237-9.141 20.379-20.379 20.379z" fill="#f9f7f8" opacity="1" data-original="#f9f7f8" class=""></path></g><path fill="#f9f7f8" d="M157.059 47.187a7.727 7.727 0 0 1-1.999-15.19c31.125-8.36 65.215-12.598 101.32-12.598 36.23 0 70.401 4.238 101.565 12.597a7.727 7.727 0 0 1-4.004 14.925c-29.858-8.009-62.683-12.07-97.561-12.07-34.753 0-67.493 4.061-97.312 12.069a7.703 7.703 0 0 1-2.009.267z" opacity="1" data-original="#f9f7f8" class=""></path><g fill="#ebebeb"><circle cx="469.884" cy="116.346" r="14.88" fill="#ebebeb" opacity="1" data-original="#ebebeb" class=""></circle><circle cx="42.878" cy="116.346" r="14.88" fill="#ebebeb" opacity="1" data-original="#ebebeb" class=""></circle></g><path fill="#7a6d79" d="M270.262 414.367H100.355c-7.113 0-12.878-5.766-12.878-12.878V252.107c0-7.113 5.766-12.878 12.878-12.878h169.906c7.113 0 12.878 5.766 12.878 12.878v149.382c.001 7.112-5.765 12.878-12.877 12.878z" opacity="1" data-original="#7a6d79" class=""></path><path fill="#685e68" d="M114.066 414.371h-13.712c-7.108 0-12.877-5.769-12.877-12.877V252.107c0-7.108 5.769-12.877 12.877-12.877h13.712c-7.119 0-12.888 5.769-12.888 12.877v149.387c0 7.108 5.769 12.877 12.888 12.877z" opacity="1" data-original="#685e68" class=""></path><path fill="#d4f2f6" d="M114.222 377.26V276.336c0-5.723 4.64-10.363 10.363-10.363h121.447c5.723 0 10.363 4.64 10.363 10.363V377.26c0 5.723-4.64 10.363-10.363 10.363H124.585c-5.724-.001-10.363-4.64-10.363-10.363z" opacity="1" data-original="#d4f2f6" class=""></path><path fill="#7a6d79" d="M424.93 485.517H314.744V251.345c0-6.692 5.425-12.117 12.117-12.117h85.953c6.692 0 12.117 5.425 12.117 12.117v234.172z" opacity="1" data-original="#7a6d79" class=""></path><path fill="#685e68" d="M343.311 239.23c-6.696 0-12.125 5.429-12.125 12.115v234.171h-16.442V251.345c0-6.686 5.429-12.115 12.115-12.115z" opacity="1" data-original="#685e68" class=""></path><path fill="#d4f2f6" d="M341.489 404.004V276.336c0-5.723 4.64-10.363 10.363-10.363h35.971c5.723 0 10.363 4.64 10.363 10.363v127.668c0 5.723-4.64 10.363-10.363 10.363h-35.971c-5.724 0-10.363-4.639-10.363-10.363z" opacity="1" data-original="#d4f2f6" class=""></path><path fill="#9be69d" d="M489.979 469.098H21.26c-11.742 0-21.26 9.518-21.26 21.26s9.518 21.26 21.26 21.26h468.719c11.742 0 21.26-9.518 21.26-21.26 0-11.741-9.519-21.26-21.26-21.26z" opacity="1" data-original="#9be69d" class=""></path><path fill="#6fd7a3" d="M80.111 505.387a21.167 21.167 0 0 0 15.039 6.234H21.262a21.163 21.163 0 0 1-15.039-6.234A21.193 21.193 0 0 1 0 490.358c0-11.737 9.515-21.262 21.262-21.262H95.15c-11.747 0-21.262 9.525-21.262 21.262a21.193 21.193 0 0 0 6.223 15.029z" opacity="1" data-original="#6fd7a3" class=""></path></g></svg>